:SAMPLES-PER-SECOND 30
:FULLY-SPECIFIED
:DEGREES
538
root  -41.9858 41.0889 -25.3446 -7.83486 -88.2825 19.4014
RightUpLeg  -19.5643 -9.05608 -4.8745
RightLeg  0.341039 -15.0578 6.55879
RightFoot  10.3154 1.0959 -5.35078
RightToes  0.000482159 0.542163 -0.142577
Spine  42.0809 -3.24024 7.37047
Spine1  15.7641 0.374962 -2.04623
HEad  28.5933 -3.9902 -3.43351
LeftShoulder1  9.62757 -18.3445 -37.8855
LeftArm  -8.98697 -19.9711 -31.9864
LeftForeArm  20.7214 -3.77357 -6.95714
LeftHand  -0.25398 0.0180481 5.50724
RightShoulder  6.65551 13.7685 32.5711
RightArm  -4.459 18.6561 30.5495
RightForeArm  -12.9922 12.6854 8.5151
RightHand  -4.01259 10.4951 -29.154
LeftUpLeg  -18.3422 6.52466 1.5865
LeftLeg  3.50548 24.5435 -6.69417
LeftFoot  3.15404 -0.901394 6.92806
LeftToes  1.06247e-005 4.65855e-005 -8.18504e-006
539
root  -42.2567 41.1976 -25.2159 -6.77785 -88.5394 16.5567
RightUpLeg  -16.3376 -8.77895 -5.06287
RightLeg  -1.40414 -14.671 6.59215
RightFoot  10.6869 1.04641 -4.99148
RightToes  0.000482159 0.542163 -0.142577
Spine  39.0924 -2.84003 6.71799
Spine1  16.513 0.259757 -1.90909
HEad  33.3349 -3.38272 -3.77724
LeftShoulder1  9.62422 -17.6027 -39.361
LeftArm  -9.36545 -13.7549 -29.9577
LeftForeArm  19.2123 -5.31771 -6.81343
LeftHand  -0.25398 0.0180481 5.50724
RightShoulder  6.60705 13.3416 33.2603
RightArm  -1.18201 13.7903 31.2231
RightForeArm  -13.4653 14.412 8.14922
RightHand  -3.97173 10.3837 -29.0596
LeftUpLeg  -15.2576 6.27365 1.66966
LeftLeg  2.07036 24.7417 -6.85361
LeftFoot  3.14713 -0.873956 6.71663
LeftToes  1.06247e-005 4.65855e-005 -8.18504e-006
540
root  -42.5185 41.2767 -25.0741 -8.30038 -88.6516 16.5431
RightUpLeg  -13.7093 -8.7119 -5.37904
RightLeg  -2.45244 -14.3025 6.51417
RightFoot  10.748 0.946182 -4.46244
RightToes  0.000482159 0.542163 -0.142577
Spine  35.9338 -2.59568 5.99927
Spine1  17.5239 0.0172536 -1.88001
HEad  37.496 -2.71231 -4.02813
LeftShoulder1  9.37085 -16.7943 -39.9045
LeftArm  -10.3504 -7.79865 -28.7534
LeftForeArm  18.6309 -7.91889 -6.38936
LeftHand  -0.25398 0.0180481 5.50724
RightShoulder  6.35504 12.802 33.0184
RightArm  1.79211 9.32765 32.7183
RightForeArm  -14.058 16.5695 7.44002
RightHand  -3.54924 9.32481 -27.8877
LeftUpLeg  -12.5176 5.94432 1.55071
LeftLeg  0.727344 24.9468 -6.9908
LeftFoot  3.0718 -0.84947 6.56285
LeftToes  1.06247e-005 4.65855e-005 -8.18504e-006
541
root  -42.754 41.3281 -24.9208 -10.8172 -88.81 17.8494
RightUpLeg  -11.8812 -8.69906 -5.66892
RightLeg  -2.71612 -13.9532 6.27153
RightFoot  10.5674 0.854291 -4.03347
RightToes  0.000482159 0.542163 -0.142577
Spine  32.6647 -2.48197 5.38353
Spine1  18.5415 -0.148475 -2.24365
HEad  41.0588 -2.16807 -3.99164
LeftShoulder1  8.95043 -16.0257 -39.5948
LeftArm  -10.8422 -2.30447 -28.2889
LeftForeArm  18.116 -10.8425 -5.827
LeftHand  -0.25398 0.0180481 5.50724
RightShoulder  6.12407 12.2278 32.9793
RightArm  4.36485 5.35735 33.9248
RightForeArm  -15.3192 19.0873 6.57696
RightHand  -3.11167 8.15362 -26.6383
LeftUpLeg  -10.3138 5.64137 1.36459
LeftLeg  -0.314575 25.2496 -7.07863
LeftFoot  2.92175 -0.834828 6.52319
LeftToes  1.06247e-005 4.65855e-005 -8.18504e-006
542
root  -42.9565 41.3656 -24.7583 -5.29047 -88.9655 10.8746
RightUpLeg  -10.0047 -8.61907 -5.83635
RightLeg  -2.67308 -13.6881 5.96365
RightFoot  10.3068 0.805621 -3.83884
RightToes  0.000482159 0.542163 -0.142577
Spine  30.0163 -2.42519 4.93116
Spine1  19.3518 -0.265574 -2.53974
HEad  44.0094 -1.92924 -3.97925
LeftShoulder1  8.68254 -15.4802 -39.5098
LeftArm  -10.5031 2.25175 -27.6579
LeftForeArm  16.8446 -12.9295 -5.39747
LeftHand  -0.25398 0.0180481 5.50724
RightShoulder  6.05133 11.781 33.6393
RightArm  6.06309 1.88299 33.9247
RightForeArm  -16.8625 21.6638 5.94973
RightHand  -3.02484 7.84146 -26.498
LeftUpLeg  -8.19293 5.60013 1.36141
LeftLeg  -0.706558 25.3168 -7.00236
LeftFoot  2.58899 -0.808782 6.48391
LeftToes  1.06247e-005 4.65855e-005 -8.18504e-006
543
root  -43.1378 41.395 -24.5914 8.07266 -88.8958 -4.43018
RightUpLeg  -7.55513 -8.56535 -6.01635
RightLeg  -2.66583 -13.5231 5.71248
RightFoot  9.98577 0.747402 -3.60063
RightToes  0.000482159 0.542163 -0.142577
Spine  28.3649 -2.43098 4.51588
Spine1  19.8678 -0.52023 -2.43019
HEad  46.3885 -1.97604 -4.15801
LeftShoulder1  8.5581 -15.0832 -39.8026
LeftArm  -10.1866 5.85829 -26.9702
LeftForeArm  15.4454 -14.1149 -5.14909
LeftHand  -0.25398 0.0180481 5.50724
RightShoulder  6.03368 11.4602 34.364
RightArm  6.21679 -1.2217 33.3328
RightForeArm  -17.3041 23.9419 5.92651
RightHand  -3.2079 8.23796 -27.2497
LeftUpLeg  -5.82458 5.78048 1.53291
LeftLeg  -0.531511 24.9958 -6.77328
LeftFoot  2.04993 -0.763256 6.38843
LeftToes  1.06247e-005 4.65855e-005 -8.18504e-006
544
root  -43.3146 41.4096 -24.4219 5.44029 -88.7168 -3.36829
RightUpLeg  -5.68139 -8.79886 -6.51668
RightLeg  -2.23927 -13.1982 5.43392
RightFoot  9.4549 0.628236 -3.06537
RightToes  0.000482159 0.542163 -0.142577
Spine  26.4681 -2.32996 3.77717
Spine1  20.5659 -0.868408 -1.9806
HEad  48.1908 -2.31477 -4.34123
LeftShoulder1  8.39461 -14.7008 -39.8689
LeftArm  -10.3784 8.74581 -26.9873
LeftForeArm  14.7224 -15.1351 -4.86865
LeftHand  -0.25398 0.0180481 5.50724
RightShoulder  5.94895 11.1483 34.6418
RightArm  5.15426 -3.97588 33.0568
RightForeArm  -16.3808 25.7121 6.31402
RightHand  -3.29448 8.3754 -27.6849
LeftUpLeg  -3.77119 5.7148 1.35722
LeftLeg  -0.61708 24.8849 -6.67629
LeftFoot  1.59434 -0.731431 6.36009
LeftToes  1.06247e-005 4.65855e-005 -8.18504e-006
545
root  -43.4859 41.4084 -24.2415 -20.37 -88.6243 22.0825
RightUpLeg  -5.58474 -9.43649 -7.47248
RightLeg  -0.959367 -12.4403 5.00897
RightFoot  8.68728 0.484976 -2.40645
RightToes  0.000482159 0.542163 -0.142577
Spine  23.0959 -1.94343 2.49485
Spine1  21.8177 -1.09686 -1.36135
HEad  49.491 -2.96967 -4.3987
LeftShoulder1  8.21127 -14.3689 -39.7101
LeftArm  -10.8763 10.971 -27.5896
LeftForeArm  14.7491 -16.2415 -4.55874
LeftHand  -0.25398 0.0180481 5.50724
RightShoulder  5.84251 10.819 34.8315
RightArm  4.05818 -6.29858 32.9912
RightForeArm  -15.3629 26.9329 6.56069
RightHand  -3.15353 7.94007 -27.374
LeftUpLeg  -2.63434 5.02799 0.382848
LeftLeg  -1.70155 25.6242 -6.95977
LeftFoot  1.54302 -0.745511 6.51151
LeftToes  1.06247e-005 4.65855e-005 -8.18504e-006
546
root  -43.6375 41.3981 -24.0454 -49.8201 -88.3012 51.7743
RightUpLeg  -6.34521 -10.2063 -8.56914
RightLeg  0.575346 -11.4977 4.55954
RightFoot  7.89292 0.368531 -1.85433
RightToes  0.000482159 0.542163 -0.142577
Spine  19.165 -1.46607 1.05407
Spine1  23.1851 -1.18915 -0.689953
HEad  50.5346 -3.78881 -4.48326
LeftShoulder1  8.12044 -14.1313 -39.8095
LeftArm  -11.2112 12.5307 -28.1324
LeftForeArm  14.8675 -17.2038 -4.34836
LeftHand  -0.25398 0.0180481 5.50724
RightShoulder  5.78301 10.5303 35.2403
RightArm  3.22776 -8.20945 32.7526
RightForeArm  -14.767 27.578 6.68951
RightHand  -2.97828 7.4492 -26.8648
LeftUpLeg  -1.96445 4.0168 -0.969539
LeftLeg  -3.34878 26.8187 -7.43757
LeftFoot  1.74108 -0.785505 6.75014
LeftToes  1.06247e-005 4.65855e-005 -8.18504e-006
547
root  -43.7618 41.3884 -23.8423 -58.8891 -88.01 60.4689
RightUpLeg  -6.10257 -10.6429 -9.33245
RightLeg  1.38789 -10.9398 4.24511
RightFoot  7.27165 0.255703 -1.25498
RightToes  0.000482159 0.542163 -0.142577
Spine  16.4995 -1.22083 0.160261
Spine1  24.0008 -1.30855 -0.113877
HEad  51.4611 -4.52638 -4.76471
LeftShoulder1  8.08587 -13.9141 -40.1655
LeftArm  -11.3295 13.6066 -28.6157
LeftForeArm  14.7864 -18.0663 -4.22389
LeftHand  -0.25398 0.0180481 5.50724
RightShoulder  5.72899 10.3024 35.5237
RightArm  2.7329 -9.82292 32.61
RightForeArm  -14.6813 27.7858 6.73644
RightHand  -2.8757 7.17404 -26.5208
LeftUpLeg  -0.952396 3.37607 -1.8429
LeftLeg  -4.32719 27.5451 -7.614
LeftFoot  1.70674 -0.796585 6.8661
LeftToes  1.06247e-005 4.65855e-005 -8.18504e-006
548
root  -43.8605 41.3814 -23.6432 -55.1937 -88.0956 55.6398
RightUpLeg  -4.64139 -10.6254 -9.64766
RightLeg  1.40861 -10.9045 4.02357
RightFoot  6.81906 0.114796 -0.425109
RightToes  0.000482159 0.542163 -0.142577
Spine  15.2703 -1.22598 -0.044104
Spine1  24.3169 -1.51794 0.301514
HEad  52.0605 -5.09395 -5.17
LeftShoulder1  8.02535 -13.6701 -40.4555
LeftArm  -11.3428 14.3961 -29.3613
LeftForeArm  14.9188 -19.1672 -4.11169
LeftHand  -0.25398 0.0180481 5.50724
RightShoulder  5.64004 10.1105 35.4572
RightArm  2.32306 -11.1468 32.7912
RightForeArm  -14.6957 27.8219 6.74598
RightHand  -2.74525 6.79588 -26.1155
LeftUpLeg  0.393929 3.3488 -2.01324
LeftLeg  -4.18234 27.5781 -7.36196
LeftFoot  1.27848 -0.765066 6.83989
LeftToes  1.06247e-005 4.65855e-005 -8.18504e-006
549
root  -43.9349 41.3704 -23.4481 -51.0169 -88.3101 50.3419
RightUpLeg  -3.25399 -10.4665 -9.79228
RightLeg  1.40977 -10.936 3.76162
RightFoot  6.42706 -0.0161086 0.384697
RightToes  0.000482159 0.542163 -0.142577
Spine  14.3184 -1.27135 -0.0384546
Spine1  24.5893 -1.70883 0.615439
HEad  52.1106 -5.58066 -5.468
LeftShoulder1  7.97514 -13.4632 -40.7139
LeftArm  -11.1607 14.9128 -30.1799
LeftForeArm  15.746 -20.5992 -4.011
LeftHand  -0.25398 0.0180481 5.50724
RightShoulder  5.56992 9.95519 35.4158
RightArm  1.8498 -12.1227 32.926
RightForeArm  -14.5439 27.9136 6.76138
RightHand  -2.55796 6.21531 -25.5695
LeftUpLeg  1.54261 3.54038 -1.97704
LeftLeg  -3.6695 27.4806 -7.0817
LeftFoot  0.755561 -0.735104 6.88595
LeftToes  1.06247e-005 4.65855e-005 -8.18504e-006
